<?xml version="1.0" encoding="utf-8"?>
<!-- Generator: Adobe Illustrator 17.1.0, SVG Export Plug-In . SVG Version: 6.00 Build 0)  -->
<!DOCTYPE svg PUBLIC "-//W3C//DTD SVG 1.1//EN" "http://www.w3.org/Graphics/SVG/1.1/DTD/svg11.dtd">
<svg version="1.1" xmlns="http://www.w3.org/2000/svg" xmlns:xlink="http://www.w3.org/1999/xlink" x="0px" y="0px"
	 viewBox="110.3 70.7 512 512" enable-background="new 110.3 70.7 512 512" xml:space="preserve">
<g id="Capa_1">
	<title>HTML5 Logo</title>
	<polygon fill="#E44D26" points="190,526.4 150.5,83.9 584.1,83.9 544.6,526.4 367,575.6 	"/>
	<polygon fill="#F16529" points="367.3,538 510.8,498.2 544.5,120 367.3,120 	"/>
	<g id="Capa_2">
	</g>
</g>
<g id="Capa_3">
	<g>
		<g>
			<g>
				<linearGradient id="SVGID_1_" gradientUnits="userSpaceOnUse" x1="307.8076" y1="224.1611" x2="419.3326" y2="224.1611">
					<stop  offset="0" style="stop-color:#D6D6D6"/>
					<stop  offset="0.3686" style="stop-color:#D7D8D8"/>
					<stop  offset="0.4803" style="stop-color:#DBDCDD"/>
					<stop  offset="0.5362" style="stop-color:#EBEBEC"/>
					<stop  offset="0.6097" style="stop-color:#F6F7F7"/>
					<stop  offset="0.713" style="stop-color:#FDFDFD"/>
					<stop  offset="1" style="stop-color:#FFFFFF"/>
				</linearGradient>
				<path fill="url(#SVGID_1_)" d="M419.3,168.7v21.3v54.7L371.4,293c-4.9,3-10,3-15.4-0.1l-48.2-48.3l0.1-20.7v-33.3v-21.9l4-2.2
					l4-2.1l4-1.8c1.3-0.6,2.6-1.2,3.9-1.7l3.6-1.4l3.5-1.2l7.1-2.2h0.2C364.4,149.5,391.5,153.7,419.3,168.7"/>
			</g>
			<g>
				<linearGradient id="SVGID_2_" gradientUnits="userSpaceOnUse" x1="381.0762" y1="325.5986" x2="523.313" y2="325.5986">
					<stop  offset="0" style="stop-color:#D6D6D6"/>
					<stop  offset="0.3686" style="stop-color:#D7D8D8"/>
					<stop  offset="0.4803" style="stop-color:#DBDCDD"/>
					<stop  offset="0.5362" style="stop-color:#EBEBEC"/>
					<stop  offset="0.6097" style="stop-color:#F6F7F7"/>
					<stop  offset="0.713" style="stop-color:#FDFDFD"/>
					<stop  offset="1" style="stop-color:#FFFFFF"/>
				</linearGradient>
				<path fill="url(#SVGID_2_)" d="M507.6,381.4h-21.3h-54.7l-48.3-47.9c-3-4.9-3-10,0.1-15.4l48.3-48.2l20.7,0.1h33.3h21.9l2.2,4
					l2.1,4l1.8,4c0.6,1.3,1.2,2.6,1.7,3.9l1.4,3.6l1.2,3.5l2.2,7.1v0.2C526.9,326.5,522.7,353.5,507.6,381.4"/>
			</g>
			<g>
				<linearGradient id="SVGID_3_" gradientUnits="userSpaceOnUse" x1="307.8076" y1="417.5656" x2="419.3326" y2="417.5656">
					<stop  offset="0" style="stop-color:#D6D6D6"/>
					<stop  offset="0.3686" style="stop-color:#D7D8D8"/>
					<stop  offset="0.4803" style="stop-color:#DBDCDD"/>
					<stop  offset="0.5362" style="stop-color:#EBEBEC"/>
					<stop  offset="0.6097" style="stop-color:#F6F7F7"/>
					<stop  offset="0.713" style="stop-color:#FDFDFD"/>
					<stop  offset="1" style="stop-color:#FFFFFF"/>
				</linearGradient>
				<path fill="url(#SVGID_3_)" d="M307.8,473v-21.3V397l47.9-48.3c4.9-3,10-3,15.4,0.1l48.2,48.3l-0.1,20.7v33.3V473l-4,2.2l-4,2.1
					l-4,1.8c-1.3,0.6-2.6,1.2-3.9,1.7l-3.6,1.4l-3.5,1.2l-7.1,2.2h-0.2C362.7,492.3,335.7,488,307.8,473"/>
			</g>
			<g>
				<linearGradient id="SVGID_4_" gradientUnits="userSpaceOnUse" x1="201.0855" y1="325.5986" x2="343.3224" y2="325.5986">
					<stop  offset="0" style="stop-color:#D6D6D6"/>
					<stop  offset="0.3686" style="stop-color:#D7D8D8"/>
					<stop  offset="0.4803" style="stop-color:#DBDCDD"/>
					<stop  offset="0.5362" style="stop-color:#EBEBEC"/>
					<stop  offset="0.6097" style="stop-color:#F6F7F7"/>
					<stop  offset="0.713" style="stop-color:#FDFDFD"/>
					<stop  offset="1" style="stop-color:#FFFFFF"/>
				</linearGradient>
				<path fill="url(#SVGID_4_)" d="M216.8,269.8h21.3h54.7l48.3,47.9c3,4.9,3,10-0.1,15.4l-48.3,48.2l-20.7-0.1h-33.3h-21.9l-2.2-4
					l-2.1-4l-1.8-4c-0.6-1.3-1.2-2.6-1.7-3.9l-1.4-3.6l-1.2-3.5l-2.2-7.1v-0.2C197.5,324.7,201.7,297.7,216.8,269.8"/>
			</g>
		</g>
		<g>
			<g>
				
					<linearGradient id="SVGID_5_" gradientUnits="userSpaceOnUse" x1="201.0855" y1="322.8634" x2="523.313" y2="322.8634" gradientTransform="matrix(1 0 0 1 0 -2)">
					<stop  offset="0" style="stop-color:#E6E6E6"/>
					<stop  offset="0.5" style="stop-color:#F0F0F0"/>
					<stop  offset="0.5007" style="stop-color:#FFFFFF"/>
					<stop  offset="0.7865" style="stop-color:#FFFFFF"/>
					<stop  offset="0.9831" style="stop-color:#FFFFFF"/>
				</linearGradient>
				<path fill="url(#SVGID_5_)" d="M419.3,168.7v21.3v54.7L371.4,293c-4.9,3-10,3-15.4-0.1l-48.2-48.3l0.1-20.7v-33.3v-21.9l4-2.2
					l4-2.1l4-1.8c1.3-0.6,2.6-1.2,3.9-1.7l3.6-1.4l3.5-1.2l7.1-2.2h0.2C364.4,149.5,391.5,153.7,419.3,168.7"/>
			</g>
			<g>
				
					<linearGradient id="SVGID_6_" gradientUnits="userSpaceOnUse" x1="201.0855" y1="322.8634" x2="523.313" y2="322.8634" gradientTransform="matrix(1 0 0 1 0 -2)">
					<stop  offset="0" style="stop-color:#E6E6E6"/>
					<stop  offset="0.5" style="stop-color:#F0F0F0"/>
					<stop  offset="0.5007" style="stop-color:#FFFFFF"/>
					<stop  offset="0.7865" style="stop-color:#FFFFFF"/>
					<stop  offset="0.9831" style="stop-color:#FFFFFF"/>
				</linearGradient>
				<path fill="url(#SVGID_6_)" d="M507.6,381.4h-21.3h-54.7l-48.3-47.9c-3-4.9-3-10,0.1-15.4l48.3-48.2l20.7,0.1h33.3h21.9l2.2,4
					l2.1,4l1.8,4c0.6,1.3,1.2,2.6,1.7,3.9l1.4,3.6l1.2,3.5l2.2,7.1v0.2C526.9,326.5,522.7,353.5,507.6,381.4"/>
			</g>
			<g>
				
					<linearGradient id="SVGID_7_" gradientUnits="userSpaceOnUse" x1="201.0855" y1="322.8634" x2="523.313" y2="322.8634" gradientTransform="matrix(1 0 0 1 0 -2)">
					<stop  offset="0" style="stop-color:#E6E6E6"/>
					<stop  offset="0.5" style="stop-color:#F0F0F0"/>
					<stop  offset="0.5007" style="stop-color:#FFFFFF"/>
					<stop  offset="0.7865" style="stop-color:#FFFFFF"/>
					<stop  offset="0.9831" style="stop-color:#FFFFFF"/>
				</linearGradient>
				<path fill="url(#SVGID_7_)" d="M307.8,473v-21.3V397l47.9-48.3c4.9-3,10-3,15.4,0.1l48.2,48.3l-0.1,20.7v33.3V473l-4,2.2l-4,2.1
					l-4,1.8c-1.3,0.6-2.6,1.2-3.9,1.7l-3.6,1.4l-3.5,1.2l-7.1,2.2h-0.2C362.7,492.3,335.7,488,307.8,473"/>
			</g>
			<g>
				
					<linearGradient id="SVGID_8_" gradientUnits="userSpaceOnUse" x1="201.0855" y1="322.8634" x2="523.313" y2="322.8634" gradientTransform="matrix(1 0 0 1 0 -2)">
					<stop  offset="0" style="stop-color:#E6E6E6"/>
					<stop  offset="0.5" style="stop-color:#F0F0F0"/>
					<stop  offset="0.5007" style="stop-color:#FFFFFF"/>
					<stop  offset="0.7865" style="stop-color:#FFFFFF"/>
					<stop  offset="0.9831" style="stop-color:#FFFFFF"/>
				</linearGradient>
				<path fill="url(#SVGID_8_)" d="M216.8,269.8h21.3h54.7l48.3,47.9c3,4.9,3,10-0.1,15.4l-48.3,48.2l-20.7-0.1h-33.3h-21.9l-2.2-4
					l-2.1-4l-1.8-4c-0.6-1.3-1.2-2.6-1.7-3.9l-1.4-3.6l-1.2-3.5l-2.2-7.1v-0.2C197.5,324.7,201.7,297.7,216.8,269.8"/>
			</g>
		</g>
		<g>
			<g>
				<path fill="none" stroke="#D6D6D6" stroke-width="3" d="M419.3,168.7v21.3v54.7L371.4,293c-4.9,3-10,3-15.4-0.1l-48.2-48.3
					l0.1-20.7v-33.3v-21.9l4-2.2l4-2.1l4-1.8c1.3-0.6,2.6-1.2,3.9-1.7l3.6-1.4l3.5-1.2l7.1-2.2h0.2
					C364.4,149.5,391.5,153.7,419.3,168.7"/>
			</g>
			<g>
				<path fill="none" stroke="#D6D6D6" stroke-width="3" d="M507.6,381.4h-21.3h-54.7l-48.3-47.9c-3-4.9-3-10,0.1-15.4l48.3-48.2
					l20.7,0.1h33.3h21.9l2.2,4l2.1,4l1.8,4c0.6,1.3,1.2,2.6,1.7,3.9l1.4,3.6l1.2,3.5l2.2,7.1v0.2
					C526.9,326.5,522.7,353.5,507.6,381.4"/>
			</g>
			<g>
				<path fill="none" stroke="#D6D6D6" stroke-width="3" d="M307.8,473v-21.3V397l47.9-48.3c4.9-3,10-3,15.4,0.1l48.2,48.3
					l-0.1,20.7v33.3V473l-4,2.2l-4,2.1l-4,1.8c-1.3,0.6-2.6,1.2-3.9,1.7l-3.6,1.4l-3.5,1.2l-7.1,2.2h-0.2
					C362.7,492.3,335.7,488,307.8,473"/>
			</g>
			<g>
				<path fill="none" stroke="#D6D6D6" stroke-width="3" d="M216.8,269.8h21.3h54.7l48.3,47.9c3,4.9,3,10-0.1,15.4l-48.3,48.2
					l-20.7-0.1h-33.3h-21.9l-2.2-4l-2.1-4l-1.8-4c-0.6-1.3-1.2-2.6-1.7-3.9l-1.4-3.6l-1.2-3.5l-2.2-7.1v-0.2
					C197.5,324.7,201.7,297.7,216.8,269.8"/>
			</g>
		</g>
	</g>
</g>
</svg>
